<svg id="f8cbb9ba-304f-4022-969a-47644a1f48e3" data-name="Layer 1" xmlns="http://www.w3.org/2000/svg" viewBox="0 0 479.82 147.27">
  <defs>
    <style>
      .eddc0d38-4a72-455b-a7d1-b5db14649d4b {
        fill: #fff;
      }
    </style>
  </defs>
  <path class="eddc0d38-4a72-455b-a7d1-b5db14649d4b" d="M6.89,65.79a25.4,25.4,0,0,0,.29,4.27c.05.26.41.44.61.22C9.29,68.64,13.67,55,9.18,56.2c-2.55.68-3.3,4.37-3.67,6.55A43.72,43.72,0,0,0,5.6,75.82c.47,3.31,1.06,8.23,3.7,10.65a.39.39,0,0,0,.53,0,21.12,21.12,0,0,0,3.84-6.31,61.61,61.61,0,0,0,3.79-11c1.19-4.93,3-13.21-1.54-17.07a.37.37,0,0,0-.56.17c-2.79,7.86-1.53,17.21.94,25a29.17,29.17,0,0,0,4.95,10c.74.9,1.87,2.23,3.2,2,2.95-.64,2.82-7,2.88-9.1a73.16,73.16,0,0,0-1.91-18.18c-1.09-4.74-2.66-11.67-7.17-14.42a.38.38,0,0,0-.52.09C15.16,51,14.46,55.78,14,60a144,144,0,0,0-.73,18.8c.06,5.84.31,11.67.38,17.51,0,2.72,0,5.44.08,8.17.11,4,.32,8.52-1.77,12.14l.64.06c-1.71-4-1.65-8.63-1.4-12.85a63.83,63.83,0,0,1,2.51-14.39A35,35,0,0,1,15.72,84a7.84,7.84,0,0,1,1.39-2.33c.45-.38.2-.42.45-.36s.94,1.18,1.08,1.39C22,87.47,23.23,93.53,25.28,98.9l.67-.32c-3.3-7.92-6.21-16-10.3-23.6-2-3.66-7.43-14.09-12.95-9.24C0,68.11.36,72.73.73,75.93a61,61,0,0,0,4,15.6c2.51,6.2,8.83,18.5,17.5,14.91,4.06-1.68,6.68-6.11,8.63-9.8a107.5,107.5,0,0,0,6.72-16.77l-.72-.07c2.83,14.6,5.17,29.36,7.12,44.11.52,3.93,1,7.88,1.25,11.84a39.64,39.64,0,0,1,0,6.26c-.11,1.12-.24,3.24-1.35,3.91-2.87,1.7-7.36-6.54-8.33-8.29a73.15,73.15,0,0,1-6.22-16C26.1,109.75,24.5,97,25.82,84.75c1-9.55,4.69-18.62,6.3-28.08,1-6,2.13-15.6-4.78-18.63C18.87,34.32,11.25,42.41,7,48.78,4,53.21,1.66,58.5,1.79,63.93c.08,3.62,1.13,8.08,5.07,9.22,3.31,1,7.06-.53,10-2.05,3.47-1.82,5.77-4.53,8.22-7.53,1.74-2.13,3.45-4.31,5.37-6.28,1.42-1.45,3.36-3.47,5.53-3.59,2.34-.14,3.88,2.74,4.95,4.44A81.9,81.9,0,0,1,45,65.63q1.63,3.38,3,6.85a.38.38,0,0,0,.5.18c4.79-3.07,7.26-8.88,9.19-14a111.79,111.79,0,0,0,3.47-11.31,155.91,155.91,0,0,0,5.13-29c.29-4.43,1.34-16.71-5.21-17.69C57.89.2,54.77,2.92,52.65,4.93A55.6,55.6,0,0,0,44,15.87a47.11,47.11,0,0,0-2.87,5.21c-1,2,.75,3.8,1.93,5.52C45.41,29.94,47.4,33,48.49,37a21.39,21.39,0,0,1,.35,10.27c-1.28,5.77-5,10.41-8.42,15-1.4,1.91-6.87,10.57-9.85,7.48-1.76-1.83-1.78-5.65-2-8a40,40,0,0,1,.06-9.22c.32-2.5.92-5.74,2.92-7.5,1.45-1.28,3-.51,4.42.42,3.62,2.37,6.5,6.07,9.15,9.43,2.86,3.63,5.53,7.42,8,11.31a45,45,0,0,1,5.67,34.36c-1.51,6.28-4.5,11.8-10.48,14.75A13.24,13.24,0,0,1,40,116.76c-3.65-.72-5.84-3.81-6.84-7.21-.91-3.1-1.18-6.35-2-9.48a.38.38,0,0,0-.43-.3c-4.21.58-7.37,5.6-9.58,8.75-3,4.24-5.68,8.53-9,12.53s-7.1,9-6,14.56c.85,4.11,4,6.76,8,7.83,7.17,2,17,.43,23.11-3.66,4.18-2.79,4.67-6.87,3-11.41-1.12-3-2.81-5.71-4-8.65-1.52-3.65-2.91-7.36-4.22-11.09a233.67,233.67,0,0,1-7.2-24.76C23.32,77.35,21.27,70,22.15,63.26c.48-3.72,2.52-5.92,5.65-7.76,1.56-.92,3.14-1.76,4.66-2.74s3.09-1.47,2.67-3.47c-.92-4.39-4.58-6.16-8.16-8.15C22.9,38.88,20,34.78,23,30.33c2.49-3.73,7.06-6,11.05-7.75a48.51,48.51,0,0,1,11-3.53c4.13-.69,8.7.05,11.77,3.07,3.48,3.41,4.59,8.61,5,13.29a76.48,76.48,0,0,1-1.28,19.68c-1.48,8.58-3.51,17.07-5.6,25.52-1.91,7.67-4,15.3-5.88,23-.8,3.32-1.57,6.65-2.58,9.91-.35,1.14-2.55,8-3.46,7.81-.57-.1-1.35-1.85-1.59-2.28A23.71,23.71,0,0,1,40,115.9a51.28,51.28,0,0,1-2.11-7.82,118.22,118.22,0,0,1-2-16.89c-.64-12.29.61-24.45,6.16-35.64,1.59-3.19,10.93-17.39,13.29-7.72,1.73,7.09.34,15.31-.55,22.42C54,77.57,52.7,84.85,51.34,92.1a98.7,98.7,0,0,1-2.76,11.75c-.93,2.9-4.49,12.3-8.67,7.71-2.81-3.1-3.48-8.43-4.1-12.38a91.21,91.21,0,0,1-1.12-13.9c0-13,5-24.71,13.25-34.64A120.19,120.19,0,0,1,60.65,37.82c2.94-2.6,6.79-5.52,10.88-5.55,2.32,0,5.2.76,7.35-.47,6.11-3.47,3.49-13.15,1.21-18C77.27,7.69,71.75.35,64.53-.37,61-.72,58,1.05,55.64,3.62a31.69,31.69,0,0,0-8.27,16.77c-1.79,12.41,4.25,24.5,10.3,34.9,3,5.24,6.51,10.29,9.27,15.69a53.6,53.6,0,0,1,5.93,22.71,57.32,57.32,0,0,1-4.34,22.75c-.49,1.21-1.15,3.08-2.32,3.86-1.82,1.22-3.24-1.59-3.9-2.91a25.39,25.39,0,0,1-2-6.44c-2.2-10.89-1.83-22.84,0-33.77a60.87,60.87,0,0,1,4.58-14.6c2.21-5,5.1-11.57,10-14.5.83-.49.57-.49,1,.3a12.37,12.37,0,0,1,.66,2.17c.46,1.82.81,3.67,1.11,5.52a133.14,133.14,0,0,1,1.51,14.36c.12,2.38,1.13,23.18-4,21.48-1.73-.58-3.27-2.3-4.49-3.56A68.16,68.16,0,0,1,65.94,83a56.12,56.12,0,0,1-6.49-9.42C52.9,60.38,62.9,46.72,69.37,35.74c2.48-4.2,4.93-9.43,8.74-12.6,3.53-2.95,5,1.86,5.61,4.65,1.89,8.65,1.36,17.77,1.5,26.56.16,10.8.57,21.5-.24,32.28-.85,11.48-2.48,23.49-7.42,34a36.73,36.73,0,0,1-3.86,6.54c-1.17,1.55-3,4.15-4.87,4.93-.69.29-.3.48-.83,0a2.86,2.86,0,0,1-.42-.92,16.23,16.23,0,0,1-.89-3.08,42,42,0,0,1-.69-7.17c-.26-10.29,1.2-20.69,2.92-30.81s3.93-20.39,8-29.86a38,38,0,0,1,3.86-7.16,17,17,0,0,1,2.14-2.5A9.48,9.48,0,0,1,84,49.7c.81-.56.7-.63,1.28-.06C86.64,51,86.85,54.27,87.08,56a75.51,75.51,0,0,1,.57,8.64c.24,11.15-.39,22.88,2.86,33.69a.37.37,0,0,0,.73,0,152.13,152.13,0,0,0,.29-28.39.37.37,0,0,0-.52-.27c-2.8,1.28-4.45,5-5.71,7.6A101.62,101.62,0,0,0,79.4,93c-3.22,10.8-6.33,22.92-5.32,34.29.24,2.74.82,6.73,3.64,8.08,2.34,1.12,4-.66,5-2.62,2.11-4,2.88-8.78,3.64-13.17,1.11-6.32,1.84-12.71,2.54-19.09.81-7.37,1.51-14.75,2.43-22.11.65-5.18,1.11-10.79,3.05-15.69l-.64.11c3.59,5.54,4.49,13.24,5.47,19.62A125.79,125.79,0,0,1,101,104.27l.74,0c-1.59-7.86-1.78-15.94-1.81-23.93,0-7.06-.13-14.16.06-21.22.08-3.1.24-6.47,1.47-9.37,0,0,.76-1.88,1.08-1.87a8.81,8.81,0,0,1,.86,1.64,25.22,25.22,0,0,1,1.68,4.38c1.82,6.24,2.11,12.88,2.53,19.34.47,7.05.77,14.31,3,21.06.1.29.48.24.64,0s1.9-1.94,2.27-1.89c.52.08,1.23,1.67,1.46,2.12a18.13,18.13,0,0,1,1.73,6.11,36.07,36.07,0,0,1-1.31,13.78A32,32,0,0,1,110.67,125c-1,1.32-2.23,2.92-3.82,3.56-6.13,2.46-6.68-15.82-6.85-18.65a300.66,300.66,0,0,1,.3-34.49c.49-9.06.86-18.49,4-27.1.88-2.47,2.91-7.2,5.91-4.08s3.39,7.72,3.51,11.76c.15,4.91-.25,9.82-.23,14.73,0,3.88.19,8,1.86,11.52a.38.38,0,0,0,.69,0c5.06-11.44,3-25,8.74-36.16L124,46c1.66,24.94-6.16,49.75-2.62,74.64a.38.38,0,0,0,.72.06c7.29-27.41,6.9-56.09,11.09-84l-.74,0c3.34,12.52,1.73,26,1.92,38.81a249.35,249.35,0,0,0,4.78,46.5.38.38,0,0,0,.61.22c6.26-5.43,8.3-14.4,9.7-22.2,1.82-10.12,2.4-20.41,4.24-30.52.94-5.16,2.17-10.43,4.77-15l-.64-.05c3.1,7.33,1.44,16.31-.46,23.74a79.93,79.93,0,0,1-8.16,20.74,40.09,40.09,0,0,1-6.66,8.35c-2.64,2.56-6.91,6.4-10.93,5-5.75-2-5.24-12-5.11-16.74a158.26,158.26,0,0,1,4.89-33.1A101.33,101.33,0,0,1,137.46,44c1.67-3.61,4.76-10.11,9.62-9.88,3,.14,4.75,2.88,5.86,5.34a51.82,51.82,0,0,1,3.15,11.22c1.42,7.15,1.89,15,4.95,21.76a.37.37,0,0,0,.64,0c1.62-2.73,2.24-5.83,3-8.89l-.63.11c2.35,3.11,3.06,7.24,3.6,11,.66,4.65.9,9.36,1.24,14,.54,7.23.58,17.07,5.94,22.69a.37.37,0,0,0,.63-.11c1.84-6.42,1.63-13.56,1.31-20.16s-.73-13.87-3.36-20a.37.37,0,0,0-.58-.12c-2.11,1.5-2.83,4.33-3.2,6.76a36.42,36.42,0,0,0,.29,11.41c.79,4.73,2.75,14.23,8.59,15.34,2.47.47,4.4-1.41,5.86-3.16a63.29,63.29,0,0,0,6.35-10.23c1.81-3.29,3.53-6.85,6-9.71.71-.83,1.95-2.25,3.2-2s2.1,2.79,2.57,3.92a115.46,115.46,0,0,1,4.15,12.39q.77,2.67,1.57,5.32c.49,1.63-.78,3.59-2.09,4.61-3.32,2.62-10.93,1.91-14-.89-3.52-3.22-3.69-9.93-3.66-14.31a74.9,74.9,0,0,1,2.07-16.32c1.19-5.19,2.8-10.76,5.88-15.15,1.08-1.54,2.72-3.32,4.75-2.41,1.87.84,3.09,3.15,4,4.85a72,72,0,0,1,4.79,12.59c.64,2,1.28,4,2.08,6,.39,1,.85,2.47,1.76,3.12a2.56,2.56,0,0,0,2.83.1,3.84,3.84,0,0,0,.78-1.36,43.28,43.28,0,0,1,2.18-4.16c1.24-2,2.42-4.27,4.16-5.9,2.89-2.7,5,.36,6.29,3,3.21,6.7-.07,12.84-3.52,18.65a60.36,60.36,0,0,0-3.69,6.92.38.38,0,0,0,.07.37c6.9,7,13.38-8.15,17.48-11.6,1-.87,2.93-2.33,4.17-1.16.81.75,1.09,2.36,1.46,3.35.85,2.27,2.09,5.15,4.24,6.5,3.8,2.38,7.34-3.89,9.73-5.84,1.56-1.26,3.32-2.39,5.28-1.45,1.29.62,2.46,1.31,3.81,1.83,3.22,1.24,6.45,2.48,9.73,3.58,6.73,2.26,13.22,3.56,20.3,2.25,3.83-.7,7.59-1.51,11.45-2,8.35-1.06,16.77-1.44,25.17-1.72,15.92-.52,31.86-.56,47.79-.55,27.65,0,55.31.32,83,.66l13.46.18c.48,0,.55-.74.07-.75-30.08-.39-60.17-.75-90.26-.82-17.22,0-34.46,0-51.68.47-8.86.26-17.75.61-26.55,1.66-2.78.33-5.56.72-8.31,1.26-4.46.88-8.72,1.82-13.31,1.34A51.22,51.22,0,0,1,279,95.35c-3.28-1.1-6.51-2.34-9.73-3.58-1.94-.75-4.23-2.84-6.43-2.22-2.64.74-4.62,3.09-6.42,5a14.05,14.05,0,0,1-2.78,2.56c-2,1.22-3.56.07-4.8-1.65-1.66-2.31-2-5.29-3.55-7.54a2.35,2.35,0,0,0-3.22-.69c-4.14,1.83-6.48,6.83-9.2,10.17-1.44,1.78-3.45,4.27-5.91,4.56-1,.12-3.25-.42-3.24-1.81,0-.8,1.08-2.22,1.45-2.88s.9-1.59,1.37-2.38c3.07-5.2,6.81-11,5.24-17.32-.75-3-3.67-9.71-7.77-6.91-2,1.34-3.25,3.72-4.47,5.7-.76,1.23-1.53,2.44-2.17,3.74s-1.12,3.6-3,2.56c-1.57-.89-2.24-4.09-2.8-5.69-.86-2.49-1.6-5-2.38-7.53-1.31-4.2-3.14-9.57-6.55-12.56-2.83-2.5-5.49-.42-7.23,2.24-3.13,4.8-4.77,10.62-6,16.17a68.36,68.36,0,0,0-1.73,18.42c.24,4,.93,10,4.68,12.38,3.49,2.22,9.42,2.74,13.15.84a7.52,7.52,0,0,0,3.38-4c.48-1.39-.42-2.8-.8-4.12-1.32-4.56-2.57-9.11-4.22-13.56-.72-1.94-1.89-7-4.84-6.42s-5,4.8-6.28,7.05c-2.45,4.17-4.55,8.55-7.24,12.58-1.84,2.77-4.93,7.23-8.67,4.7-3.46-2.35-4.92-7.55-5.8-11.38a36.91,36.91,0,0,1-.77-14,10.68,10.68,0,0,1,2-5.22c.85-1,.53-.6.89.45a32.61,32.61,0,0,1,1,3.91,94.51,94.51,0,0,1,1.84,18.53c.07,5.19,0,10.7-1.4,15.73l.64-.11c-2.74-2.87-3.77-6.94-4.47-10.73a128.37,128.37,0,0,1-1.47-14,135.63,135.63,0,0,0-1.36-13.5c-.58-3.33-1.41-6.8-3.48-9.54a.38.38,0,0,0-.64.11c-.7,3-1.29,6.05-2.87,8.72l.65.06c-3.19-7-3.58-15.26-5.12-22.7-1-4.81-2.25-13.3-7.47-15.57-4.25-1.85-7.8,2-9.88,5.25-3.65,5.71-5.71,12.49-7.49,19a161.47,161.47,0,0,0-6,36.79c-.18,5.08-.67,13.62,3.9,17.17,5.84,4.54,13.57-4.08,16.86-8.11,5.36-6.58,8.51-15,10.84-23,2.39-8.3,4.62-18.53,1.11-26.83a.37.37,0,0,0-.64-.06c-4.29,7.61-5.31,16.86-6.38,25.38-1.26,10-1.94,20.31-5,30-1.44,4.56-3.53,9.08-7.2,12.27l.6.22a246.36,246.36,0,0,1-4.78-47.62c-.09-12.41,1.32-25.55-1.92-37.69a.37.37,0,0,0-.73,0c-4.18,27.85-3.78,56.48-11.05,83.83l.71.06c-3.54-24.88,4.29-49.7,2.63-74.64,0-.42-.58-.35-.72-.07-5.76,11.17-3.68,24.72-8.74,36.16l.68,0c-2-4.19-1.85-9.15-1.76-13.68s.39-9,.15-13.48c-.19-3.58-.75-7.21-2.94-10.16-1.1-1.48-2.77-3-4.63-1.83-2.09,1.27-3,4.45-3.69,6.61A71.07,71.07,0,0,0,100.82,60c-.55,3.67-.78,7.38-1,11.09a331.44,331.44,0,0,0-.66,36.89c.26,5.25.58,10.69,2,15.77.61,2.12,1.74,5.66,4.45,5.8,1.5.08,2.83-1,3.83-2a24.82,24.82,0,0,0,5.32-8.75c3.14-8.06,5.21-20-.91-27.21a.37.37,0,0,0-.59,0c-.76.92-1.86,1.4-2.62,2.31l.64.06c-2.72-8.11-2.65-17-3.28-25.4-.55-7.24-1.11-15.28-5.22-21.51-.14-.22-.45-.13-.59,0-2.45,2.82-2.76,7.07-2.94,10.63-.22,4.65,0,9.33-.06,14-.08,10.87-.4,22,1.77,32.68.08.4.73.41.74,0A127.63,127.63,0,0,0,99.9,81.67c-1-6.33-2-13.82-5.54-19.33-.16-.25-.54-.12-.63.11-1.59,4-2.1,8.53-2.69,12.79-.88,6.38-1.51,12.79-2.19,19.2-.71,6.7-1.41,13.41-2.39,20.09-.76,5.24-1.54,10.65-3.37,15.64-.83,2.26-2.67,6.45-5.65,4.17S74.63,126.27,74.7,123c.26-12.28,3.49-24.83,7.57-36.36C84,81.7,85.89,76.28,89.19,72.2c.38-.47,1.1-1.5,1.73-1.65s-.18-.41,0,.36a24.3,24.3,0,0,1,.2,2.56c.1,1.71.17,3.41.21,5.12a165.55,165.55,0,0,1-.78,19.66l.74,0c-2.76-9.17-2.76-19.26-2.8-28.77A115.44,115.44,0,0,0,88,57c-.32-2.86-.73-6.24-2.62-8.55a.37.37,0,0,0-.44-.09c-4.74,2.3-7.26,8.18-9.14,12.77a120.28,120.28,0,0,0-5.92,20.18A192.46,192.46,0,0,0,65.25,117c-.11,5.18-.4,11.83,2.61,16.33a.39.39,0,0,0,.53.05c7.26-4.93,11-13.62,13.29-21.77,3-10.5,4-21.51,4.47-32.38.35-9.26-.17-18.47-.21-27.72,0-8.09.3-16.68-1.67-24.59-.45-1.83-1.21-4.8-3.31-5.42-2.64-.78-5,2.7-6.25,4.43-2.67,3.62-4.83,7.6-7.16,11.44-3,5-6.17,10-8.36,15.39s-3.43,11.6-1.82,17.43c1,3.54,3,6.5,5.09,9.45a74,74,0,0,0,8.39,10.05c1.2,1.16,3.78,3.94,5.76,3,1.81-.83,2.32-4,2.63-5.67A60,60,0,0,0,80,75c-.14-8.2-.74-16.75-2.83-24.7a17.35,17.35,0,0,0-1.07-3.14.4.4,0,0,0-.5-.18c-3.74,1.35-6.23,5.53-8.1,8.78a74.34,74.34,0,0,0-6.19,14.06c-2.8,8.6-3.21,18.12-3.05,27.1a80.45,80.45,0,0,0,1.23,13.68c.62,3.26,1.54,7.76,4.17,10.06,3,2.63,5-2.35,5.85-4.54a60.44,60.44,0,0,0,4.13-19c.47-12.46-3.93-23.4-10.28-33.85-6-9.8-12.46-19.89-14.76-31.3A31.37,31.37,0,0,1,49.73,14.3C51.56,9.56,55.12,3.4,60,1.14c7.11-3.32,14.1,3.92,17.52,9.36,3.16,5.05,7.11,14.46,2.19,19.68-1.8,1.9-4.3,1.5-6.68,1.39a13.13,13.13,0,0,0-7.5,1.83c-4.82,2.67-8.83,7-12.7,10.86C45.34,51.74,38.91,60.49,35.9,70.73c-2.49,8.49-2.27,17.49-1.16,26.19a46.67,46.67,0,0,0,2.67,11.73c.79,2,2.15,4.72,4.57,4.89,3.19.23,5.17-4,6.18-6.35a65.12,65.12,0,0,0,3.46-12.58C54.13,82,56.53,69,56.77,56.16,56.83,53,57.43,45.78,54,43.9c-1.38-.74-2.9,0-4.07.77a25.74,25.74,0,0,0-7.83,9.42A64,64,0,0,0,35,84.4c0,9.66.69,19.73,3.41,29,.9,3.09,2.06,6.39,4.37,8.73a.38.38,0,0,0,.59,0c2.69-3.79,3.91-8.5,5.05-12.94C49.78,104,51,98.85,52.37,93.68c3.18-12.25,6.35-24.55,8.64-37,2.07-11.22,5.8-37-11.47-38.52-5.1-.44-10.29,1.45-14.93,3.37-4.88,2-12.18,5.38-13.48,11.15-1.5,6.64,5.63,8.58,9.75,11.58a8,8,0,0,1,3.45,4.9c.31,1.92-1.95,2.81-3.44,3.71a46.7,46.7,0,0,0-6.15,3.81c-4.7,4-3.66,11.09-2.83,16.47a201.39,201.39,0,0,0,9.59,36.22,130,130,0,0,0,6.2,15.12c2.24,4.48,4.84,10.17.16,14-5.19,4.24-13.44,5.27-19.94,4.83-3.28-.23-6.84-1.24-9-3.84-3.8-4.47-1.69-10.11,1.22-14.38,2.16-3.16,4.87-5.86,7-9,2.39-3.57,4.63-7.26,7.36-10.59a17.73,17.73,0,0,1,4.4-4.2,3.61,3.61,0,0,1,1.1-.53c1.05-.11.45-.16.81.62.59,1.25.6,3.11.84,4.48.72,4,1.84,8.56,5.68,10.74,6.37,3.62,15-1.46,18.62-6.81,5.29-7.83,5.63-19.26,4-28.24-1.32-7.36-4.54-13.43-8.7-19.51-4-5.8-8.29-12.17-13.93-16.5-1.31-1-3.29-2.42-5-1.83-2.69.9-3.7,4.89-4.15,7.27a40.22,40.22,0,0,0,0,13c.3,2.13.58,6.53,3.3,7.21,2.21.55,4.39-2,5.66-3.36a97.09,97.09,0,0,0,7.22-9.42,30.28,30.28,0,0,0,5.47-11.63,24.33,24.33,0,0,0-1.92-14,33.74,33.74,0,0,0-3.69-6c-.84-1.18-2.33-2.79-2.47-4.29a5.14,5.14,0,0,1,1-2.58,61.92,61.92,0,0,1,6.29-9.62c2.73-3.46,11.6-13.83,15.29-6,1.36,2.89,1.51,6.4,1.52,9.54a84.69,84.69,0,0,1-.92,11.9A186.9,186.9,0,0,1,60,48.88C59.16,52,58.25,55,57.13,58a50.88,50.88,0,0,1-3.49,7.71,24.47,24.47,0,0,1-2,3c-.24.32-2.53,3.25-3.17,3a12.65,12.65,0,0,1-1-2.32c-.39-.9-.8-1.8-1.22-2.69-1-2.14-2-4.24-3.19-6.3-1.27-2.28-3-6.17-5.59-7.25-2.36-1-4.82,1-6.45,2.44a82.5,82.5,0,0,0-7.54,8.62,22.82,22.82,0,0,1-7.19,6.26c-2.77,1.43-6.46,2.94-9.59,1.83-4.33-1.55-4.56-7.68-4-11.46a29.46,29.46,0,0,1,6-13.24C12.89,42,20.46,34.63,28,39.2c5.56,3.39,4.3,12,3.39,17.4C30.12,64,27.76,71.11,26.11,78.41c-1.92,8.46-1.75,17.38-.8,26A102.6,102.6,0,0,0,32,131.92a48.37,48.37,0,0,0,5.26,9.86c1.21,1.7,3.27,4.77,5.61,5.06,6.82.86,1-29.18.5-32.42-1.73-11.61-3.52-23.22-5.76-34.75a.37.37,0,0,0-.71-.06c-2.65,8-5.46,17.64-11.6,23.79-7.85,7.84-15.5-2.73-18.73-9.57A62.1,62.1,0,0,1,2.16,79.94c-.78-3.75-2-9.29.27-12.75C7.19,60,14.3,73.92,15.89,77c3.61,7.08,6.33,14.54,9.39,21.86.18.45.84.13.67-.32-2.28-6-3.62-13.39-8.21-18.16a.38.38,0,0,0-.59,0c-4,4.4-5.2,11.58-6.08,17.22-.94,6.09-1.72,13.47.8,19.32a.38.38,0,0,0,.65.05c2.66-4.61,1.92-10.36,1.83-15.45-.08-4,0-8-.16-11.94-.25-9.47-.62-19,.38-28.48.4-3.85,1-8,2.71-11.48A10.41,10.41,0,0,0,18,48.18c.3-.07,1.13.93,1.31,1.12a14.41,14.41,0,0,1,2.23,3.39c3.14,6.27,4.28,13.74,4.82,20.67a52.77,52.77,0,0,1,0,9.49c-.14,1.31-.33,4.91-1.94,5.5-2.22.81-4.65-4.55-5.3-5.87A46.66,46.66,0,0,1,15,67.39a43.37,43.37,0,0,1-.27-7.64,31.06,31.06,0,0,1,.41-3.59,21.45,21.45,0,0,1,.47-2.11c.22-.8,0-1,.58-.73,1.11.52,1.52,3.31,1.66,4.3a23.73,23.73,0,0,1-.08,6.07,55.31,55.31,0,0,1-3.4,13,49.25,49.25,0,0,1-2.14,4.89c-.45.9-1.6,3.81-2.67,4.19.23-.08-.42-.69-.69-1.15a13.69,13.69,0,0,1-1-2.22,34,34,0,0,1-1.4-6,42.86,42.86,0,0,1-.19-13.61A10.58,10.58,0,0,1,8,58c.32-.4,1-1.15,1.61-1.12,1.05.06.91,1.45.88,2.23A23.65,23.65,0,0,1,9.28,65c-.45,1.46-.91,3.53-2,4.7l.61.21a24,24,0,0,1-.29-4.07c0-.47-.74-.55-.74-.07Z" transform="translate(-0.47 0.41)"/>
</svg>
